<mxfile host="app.diagrams.net" agent="Mozilla/5.0 (Windows NT 10.0; Win64; x64) AppleWebKit/537.36 (KHTML, like Gecko) Chrome/134.0.0.0 Safari/537.36 Edg/134.0.0.0" version="26.1.1">
  <diagram name="Page-1" id="FW8P1bYRcAbz4zjBkNYF">
    <mxGraphModel dx="1426" dy="789" grid="1" gridSize="10" guides="1" tooltips="1" connect="1" arrows="1" fold="1" page="1" pageScale="1" pageWidth="850" pageHeight="1100" math="0" shadow="0">
      <root>
        <mxCell id="0" />
        <mxCell id="1" parent="0" />
        <mxCell id="OEnEmRnsoDf4d4bqQju7-22" value="&lt;br&gt;&lt;div&gt;Nodeport&lt;/div&gt;" style="text;html=1;align=center;verticalAlign=middle;resizable=0;points=[];autosize=1;strokeColor=none;fillColor=none;" vertex="1" parent="1">
          <mxGeometry x="433" y="180" width="70" height="40" as="geometry" />
        </mxCell>
        <mxCell id="OEnEmRnsoDf4d4bqQju7-37" style="edgeStyle=orthogonalEdgeStyle;rounded=0;orthogonalLoop=1;jettySize=auto;html=1;entryX=1.023;entryY=0.558;entryDx=0;entryDy=0;entryPerimeter=0;" edge="1" parent="1" source="OEnEmRnsoDf4d4bqQju7-36" target="OEnEmRnsoDf4d4bqQju7-4">
          <mxGeometry relative="1" as="geometry">
            <mxPoint x="700" y="440" as="targetPoint" />
            <Array as="points">
              <mxPoint x="730" y="437" />
            </Array>
          </mxGeometry>
        </mxCell>
        <mxCell id="OEnEmRnsoDf4d4bqQju7-40" style="edgeStyle=orthogonalEdgeStyle;rounded=0;orthogonalLoop=1;jettySize=auto;html=1;entryX=1;entryY=0.5;entryDx=0;entryDy=0;exitX=0.5;exitY=1;exitDx=0;exitDy=0;exitPerimeter=0;" edge="1" parent="1" source="OEnEmRnsoDf4d4bqQju7-36" target="OEnEmRnsoDf4d4bqQju7-5">
          <mxGeometry relative="1" as="geometry" />
        </mxCell>
        <mxCell id="OEnEmRnsoDf4d4bqQju7-36" value="" style="verticalLabelPosition=bottom;verticalAlign=top;html=1;shape=mxgraph.basic.4_point_star_2;dx=0.8;" vertex="1" parent="1">
          <mxGeometry x="680" y="510" width="100" height="100" as="geometry" />
        </mxCell>
        <mxCell id="OEnEmRnsoDf4d4bqQju7-39" value="" style="group" vertex="1" connectable="0" parent="1">
          <mxGeometry x="350.0029370629371" y="252.3649999999999" width="215.12706293706287" height="486.2092857142858" as="geometry" />
        </mxCell>
        <mxCell id="OEnEmRnsoDf4d4bqQju7-2" value="NP" style="triangle;whiteSpace=wrap;html=1;rotation=-90;" vertex="1" parent="OEnEmRnsoDf4d4bqQju7-39">
          <mxGeometry x="89.54706293706292" y="-16.77499999999992" width="77.63" height="111.18" as="geometry" />
        </mxCell>
        <mxCell id="OEnEmRnsoDf4d4bqQju7-4" value="" style="rounded=1;whiteSpace=wrap;html=1;" vertex="1" parent="OEnEmRnsoDf4d4bqQju7-39">
          <mxGeometry x="22.187062937062905" y="117.6350000000001" width="192.94" height="120" as="geometry" />
        </mxCell>
        <mxCell id="OEnEmRnsoDf4d4bqQju7-5" value="" style="rounded=1;whiteSpace=wrap;html=1;" vertex="1" parent="OEnEmRnsoDf4d4bqQju7-39">
          <mxGeometry y="377.63785714285723" width="192.93706293706293" height="108.57142857142857" as="geometry" />
        </mxCell>
        <mxCell id="OEnEmRnsoDf4d4bqQju7-8" value="wordpress" style="rounded=0;whiteSpace=wrap;html=1;" vertex="1" parent="OEnEmRnsoDf4d4bqQju7-39">
          <mxGeometry x="86.6174825174825" y="173.00642857142861" width="74.68531468531468" height="40.714285714285715" as="geometry" />
        </mxCell>
        <mxCell id="OEnEmRnsoDf4d4bqQju7-9" value="mysql" style="rounded=0;whiteSpace=wrap;html=1;" vertex="1" parent="OEnEmRnsoDf4d4bqQju7-39">
          <mxGeometry x="51.30699300699297" y="426.9164285714287" width="74.68531468531468" height="40.714285714285715" as="geometry" />
        </mxCell>
        <mxCell id="OEnEmRnsoDf4d4bqQju7-10" value="Deploy replicat=2" style="text;html=1;align=center;verticalAlign=middle;resizable=0;points=[];autosize=1;strokeColor=none;fillColor=none;" vertex="1" parent="OEnEmRnsoDf4d4bqQju7-39">
          <mxGeometry x="58.65146853146848" y="87.6350000000001" width="120" height="30" as="geometry" />
        </mxCell>
        <mxCell id="OEnEmRnsoDf4d4bqQju7-11" value="STS replicat = 1" style="text;html=1;align=center;verticalAlign=middle;resizable=0;points=[];autosize=1;strokeColor=none;fillColor=none;" vertex="1" parent="OEnEmRnsoDf4d4bqQju7-39">
          <mxGeometry x="51.30440559440564" y="347.6335714285715" width="110" height="30" as="geometry" />
        </mxCell>
        <mxCell id="OEnEmRnsoDf4d4bqQju7-35" value="ClusterIP" style="triangle;whiteSpace=wrap;html=1;rotation=-90;shadow=0;rounded=0;" vertex="1" parent="OEnEmRnsoDf4d4bqQju7-39">
          <mxGeometry x="67.50706293706291" y="250.6450000000002" width="80.12" height="110" as="geometry" />
        </mxCell>
        <mxCell id="OEnEmRnsoDf4d4bqQju7-41" value="" style="rhombus;whiteSpace=wrap;html=1;" vertex="1" parent="1">
          <mxGeometry x="110" y="390" width="80" height="80" as="geometry" />
        </mxCell>
        <mxCell id="OEnEmRnsoDf4d4bqQju7-42" value="" style="rhombus;whiteSpace=wrap;html=1;" vertex="1" parent="1">
          <mxGeometry x="120" y="640" width="80" height="80" as="geometry" />
        </mxCell>
        <mxCell id="OEnEmRnsoDf4d4bqQju7-45" value="" style="line;strokeWidth=1;rotatable=0;dashed=0;labelPosition=right;align=left;verticalAlign=middle;spacingTop=0;spacingLeft=6;points=[];portConstraint=eastwest;" vertex="1" parent="1">
          <mxGeometry x="380" y="470" width="60" height="10" as="geometry" />
        </mxCell>
        <mxCell id="OEnEmRnsoDf4d4bqQju7-47" value="" style="line;strokeWidth=1;rotatable=0;dashed=0;labelPosition=right;align=left;verticalAlign=middle;spacingTop=0;spacingLeft=6;points=[];portConstraint=eastwest;" vertex="1" parent="1">
          <mxGeometry x="380" y="470" width="60" height="10" as="geometry" />
        </mxCell>
        <mxCell id="OEnEmRnsoDf4d4bqQju7-48" value="" style="line;strokeWidth=1;rotatable=0;dashed=0;labelPosition=right;align=left;verticalAlign=middle;spacingTop=0;spacingLeft=6;points=[];portConstraint=eastwest;" vertex="1" parent="1">
          <mxGeometry x="200" y="675" width="150" height="10" as="geometry" />
        </mxCell>
        <mxCell id="OEnEmRnsoDf4d4bqQju7-49" value="" style="line;strokeWidth=1;rotatable=0;dashed=0;labelPosition=right;align=left;verticalAlign=middle;spacingTop=0;spacingLeft=6;points=[];portConstraint=eastwest;" vertex="1" parent="1">
          <mxGeometry x="190" y="425" width="180" height="10" as="geometry" />
        </mxCell>
      </root>
    </mxGraphModel>
  </diagram>
</mxfile>
